<svg width="35" height="35" viewBox="0 0 35 35" fill="none" xmlns="http://www.w3.org/2000/svg">
<path d="M11.6667 18.3333V5C11.6667 3.16667 13.1667 1.66667 15 1.66667H30C31.8333 1.66667 33.3333 3.16667 33.3333 5V15H27.6167L25.4833 12.1C25.3833 11.95 25.1833 11.95 25.0833 12.1L21.7667 16.6667C21.6667 16.7667 21.4667 16.7833 21.3667 16.6667L18.9833 13.75C18.8833 13.6333 18.7 13.6333 18.6 13.75L15.0833 18.1833C14.95 18.3333 15.0667 18.5833 15.2667 18.5833H25.8333V21.6667H15C13.15 21.6667 11.6667 20.1833 11.6667 18.3333ZM6.66667 33.3333V31.6667H3.33333V33.3333H0V0H3.33333V1.66667H6.66667V0H10.65C9.23333 1.23333 8.33333 3 8.33333 5V18.3333C8.33333 22.0167 11.3167 25 15 25H22.8333C21.1167 26.3833 20 28.4667 20 30.8333C20 31.7167 20.1833 32.55 20.4667 33.3333H6.66667ZM3.33333 8.33333H6.66667V5H3.33333V8.33333ZM3.33333 15H6.66667V11.6667H3.33333V15ZM3.33333 21.6667H6.66667V18.3333H3.33333V21.6667ZM6.66667 28.3333V25H3.33333V28.3333H6.66667ZM35 18.3333V21.6667H31.6667V30.8333C31.6667 33.1333 29.8 35 27.5 35C25.2 35 23.3333 33.1333 23.3333 30.8333C23.3333 28.5333 25.2 26.6667 27.5 26.6667C28.1 26.6667 28.65 26.7833 29.1667 27.0167V18.3333H35Z" fill="#323232"/>
</svg>
