<svg width="869" height="721" viewBox="0 0 869 721" fill="none" xmlns="http://www.w3.org/2000/svg">
<path d="M602.662 0.13269C653.66 0.13269 699.702 21.3428 732.454 55.4204C733.128 56.1221 734.099 56.4635 735.061 56.3215C776.683 50.1834 815.323 34.8874 848.869 12.5462C851.437 10.8362 854.679 13.5603 853.283 16.311C833.649 54.9837 805.299 88.4844 770.82 114.23C770.543 114.437 770.438 114.803 770.563 115.125C770.687 115.448 771.013 115.648 771.357 115.613C804.183 112.198 835.611 103.024 864.443 88.9968C867.217 87.6471 870.064 90.7818 868.311 93.3201C846.01 125.606 817.206 152.739 784.057 173.08C783.132 173.648 782.58 174.667 782.607 175.752C782.643 177.208 782.662 178.668 782.662 180.133C782.662 183.373 782.574 186.592 782.405 189.79C782.575 195.217 782.663 200.665 782.663 206.133C782.663 490.007 552.537 720.132 268.663 720.133C170.633 720.133 79.012 692.688 1.06456 645.066C-0.863633 643.888 0.00301899 640.932 2.26261 640.932C96.6931 640.932 185.174 615.465 261.217 571.028C263.813 569.511 262.749 565.491 259.75 565.294C181.974 560.183 116.341 510.614 88.0205 441.759C87.1877 439.734 88.7814 437.562 90.9674 437.686C100.795 438.247 110.696 438.533 120.663 438.533C133.088 438.533 145.411 438.091 157.615 437.224C160.987 436.984 161.421 431.918 158.212 430.856C84.0532 406.328 29.1165 339.58 21.8755 259.082C21.6805 256.914 23.8207 255.306 25.8678 256.046C46.2066 263.4 67.1423 269.507 88.5823 274.275C91.6418 274.955 93.5707 270.965 91.2532 268.855C51.0778 232.274 25.8623 179.548 25.8622 120.932C25.8623 89.3311 33.1945 59.4428 46.2463 32.8723C47.2043 30.9219 49.8588 30.6653 51.2255 32.3548C123.173 121.301 224.198 185.754 339.843 211.264C344.398 212.269 348.977 213.213 353.577 214.097C368.007 216.867 382.651 219.033 397.482 220.569C406.179 221.47 414.94 222.154 423.759 222.616C425.756 222.72 427.28 220.868 426.851 218.915C424.108 206.424 422.662 193.447 422.662 180.133C422.662 80.7216 503.251 0.132888 602.662 0.13269Z" fill="#E6E6E6"/>
</svg>
