<svg width="849" height="746" viewBox="0 0 849 746" fill="none" xmlns="http://www.w3.org/2000/svg">
<path d="M712.414 20.8168C754.024 -0.708023 789.471 -5.64357 813.784 6.48767C838.194 18.6675 850.902 47.7781 847.649 93.1263C844.924 131.102 834.212 263.484 825.537 328.962C819.558 374.091 765.947 452.316 651.035 457.908C647.329 458.089 645.845 467.238 649.332 468.504C655.362 470.692 661.349 473.06 667.232 475.611C693.994 487.216 718.653 502.643 735.152 522.281C751.678 541.952 760.012 565.854 754.055 594.266C748.109 622.62 727.957 655.333 687.836 692.761C650.453 727.635 617.081 743.068 587.518 744.828C557.933 746.588 532.342 734.644 510.559 715.15C470.889 679.648 443.653 618.931 427.488 569.378C426.572 566.569 422.514 566.569 421.599 569.379C405.444 618.98 378.183 679.846 338.445 715.411C316.662 734.905 291.07 746.849 261.486 745.088C231.922 743.329 198.551 727.896 161.167 693.022C121.046 655.594 100.894 622.881 94.9484 594.527C88.9907 566.115 97.3249 542.213 113.852 522.541C130.35 502.903 155.01 487.477 181.772 475.871C187.654 473.321 193.641 470.953 199.671 468.765C203.158 467.499 201.674 458.349 197.968 458.169C83.0558 452.577 29.445 374.351 23.466 329.223C14.7909 263.745 4.0792 131.362 1.35468 93.3871C-1.89872 48.0386 10.8091 18.9282 35.2189 6.74841C59.532 -5.3828 94.9792 -0.447414 136.589 21.0775C218.73 63.5692 325.875 171.189 421.775 344.247C422.922 346.317 425.937 346.317 427.084 344.246C523.02 171.036 630.233 63.3297 712.414 20.8168Z" fill="#E6E6E6"/>
</svg>
