<svg width="32" height="35" viewBox="0 0 32 35" fill="none" xmlns="http://www.w3.org/2000/svg">
<path d="M10.6667 15.75V19.25H7.11111V15.75H10.6667ZM17.7778 15.75V19.25H14.2222V15.75H17.7778ZM24.8889 15.75V19.25H21.3333V15.75H24.8889ZM28.4444 3.5C29.3874 3.5 30.2918 3.86875 30.9586 4.52513C31.6254 5.1815 32 6.07174 32 7V31.5C32 32.4283 31.6254 33.3185 30.9586 33.9749C30.2918 34.6312 29.3874 35 28.4444 35H3.55556C1.58222 35 0 33.425 0 31.5V7C0 6.07174 0.374602 5.1815 1.0414 4.52513C1.70819 3.86875 2.61256 3.5 3.55556 3.5H5.33333V0H8.88889V3.5H23.1111V0H26.6667V3.5H28.4444ZM28.4444 31.5V12.25H3.55556V31.5H28.4444ZM10.6667 22.75V26.25H7.11111V22.75H10.6667ZM17.7778 22.75V26.25H14.2222V22.75H17.7778ZM24.8889 22.75V26.25H21.3333V22.75H24.8889Z" fill="#323232"/>
</svg>
