<svg width="948" height="721" viewBox="0 0 948 721" fill="none" xmlns="http://www.w3.org/2000/svg">
<path d="M339.234 0.13269C339.565 0.154114 339.867 0.339449 340.036 0.631714C343.641 6.88891 349.271 16.9407 354.446 26.7665C358.684 34.8131 362.647 42.7652 364.931 48.3581C365.499 49.7491 366.938 50.5737 368.41 50.2731C407.016 42.3902 497.164 32.4608 578.912 50.2792C580.378 50.5986 581.855 49.7992 582.432 48.4147C584.746 42.8595 588.581 35.1747 592.675 27.4022C597.85 17.5764 603.479 7.52468 607.085 1.26746C607.253 0.975104 607.556 0.789845 607.886 0.768433L608.03 0.769409C679.394 6.37719 767.645 43.4324 802.84 61.243C802.934 61.2906 803.02 61.3526 803.094 61.4266L803.165 61.5048C860.701 132.422 969.13 339.244 943.175 599.833C943.147 600.111 943.004 600.366 942.78 600.534C894.421 636.806 784.376 699.156 702.878 720.169C702.491 720.268 702.081 720.127 701.837 719.811C691.012 705.802 664.275 666.971 650.251 636.372C650.135 636.119 650.13 635.829 650.236 635.572C650.343 635.315 650.551 635.114 650.812 635.017C660.217 631.53 675.54 625.407 690.918 618.381C704.155 612.333 717.379 605.639 726.909 599.4C728.58 598.307 728.642 595.917 727.077 594.676L714.691 584.852C713.822 584.163 712.638 584.013 711.62 584.454C561.495 649.526 413.04 659.416 234.758 584.379C233.746 583.953 232.568 584.105 231.709 584.787L220.043 594.04C218.479 595.281 218.541 597.671 220.211 598.764C229.741 605.004 242.965 611.697 256.203 617.745C271.581 624.771 286.903 630.894 296.308 634.382C296.569 634.478 296.778 634.68 296.885 634.936C296.991 635.193 296.986 635.483 296.87 635.736C282.846 666.335 256.109 705.166 245.284 719.176C245.04 719.492 244.63 719.633 244.243 719.533C162.745 698.52 52.6997 636.17 4.34058 599.898C4.11677 599.73 3.97381 599.476 3.94604 599.197C-22.0092 338.609 86.4194 131.786 143.956 60.869L144.026 60.7909C144.1 60.7168 144.187 60.6549 144.281 60.6073C179.476 42.7966 267.727 5.74139 339.091 0.133667L339.234 0.13269ZM316.295 299.161C268.919 299.161 230.513 341.552 230.513 393.845C230.513 446.137 268.919 488.528 316.295 488.528C363.67 488.528 402.076 446.137 402.076 393.845C402.076 341.553 363.67 299.161 316.295 299.161ZM631.461 299.161C584.085 299.161 545.679 341.552 545.679 393.845C545.679 446.137 584.085 488.528 631.461 488.528C678.836 488.528 717.241 446.137 717.241 393.845C717.241 341.553 678.836 299.161 631.461 299.161Z" fill="#E6E6E6"/>
</svg>
