<svg width="746" height="746" viewBox="0 0 746 746" fill="none" xmlns="http://www.w3.org/2000/svg">
<path d="M537.358 0.136597C652.713 0.867313 746 94.606 746 210.133V535.133C746 650.659 652.713 744.398 537.358 745.129L536 745.133H210C94.02 745.133 -0.000244141 651.112 -0.000244141 535.133V210.133C-0.000244141 94.1529 94.02 0.132695 210 0.13269H536L537.358 0.136597ZM210 70.1327C132.68 70.1327 69.9998 132.813 69.9998 210.133V535.133C69.9998 612.453 132.68 675.133 210 675.133H536C613.32 675.133 676 612.453 676 535.133V210.133C676 132.813 613.32 70.1327 536 70.1327H210ZM373 180.133C480.695 180.133 568 266.989 568 374.133C568 481.276 480.695 568.133 373 568.133C265.304 568.133 178 481.276 178 374.133C178 266.989 265.304 180.133 373 180.133ZM373 250.133C303.624 250.133 248 305.988 248 374.133C248 442.277 303.624 498.133 373 498.133C442.375 498.133 498 442.277 498 374.133C498 305.988 442.375 250.133 373 250.133ZM573 128.133C597.853 128.133 618 148.28 618 173.133C618 197.986 597.853 218.133 573 218.133C548.147 218.133 528 197.986 528 173.133C528 148.28 548.147 128.133 573 128.133Z" fill="#E6E6E6"/>
</svg>
